<svg xmlns="http://www.w3.org/2000/svg" viewBox="0 0 200 215">
  <defs>
    <clipPath id="cl">
      <polygon points="100,8 15,42 15,130 45,172 100,208"/>
    </clipPath>
    <clipPath id="cr">
      <polygon points="100,8 185,42 185,130 155,172 100,208"/>
    </clipPath>
    <clipPath id="full">
      <polygon points="100,8 185,42 185,130 155,172 100,208 45,172 15,130 15,42"/>
    </clipPath>
  </defs>

  <!-- Drop shadow -->
  <polygon points="102,10 187,44 187,132 157,174 102,210 47,174 17,132 17,44"
    fill="#00000033"/>

  <!-- Left half – warm brown bricks -->
  <g clip-path="url(#cl)">
    <rect width="100" height="215" fill="#7B4A2A"/>
    <!-- Row 1 -->
    <rect x="15" y="44" width="28" height="13" rx="1" fill="#8B5433"/>
    <rect x="45" y="44" width="28" height="13" rx="1" fill="#8B5433"/>
    <rect x="75" y="44" width="25" height="13" rx="1" fill="#8B5433"/>
    <!-- Row 2 offset -->
    <rect x="15" y="59" width="14" height="13" rx="1" fill="#9A5E3C"/>
    <rect x="31" y="59" width="28" height="13" rx="1" fill="#9A5E3C"/>
    <rect x="61" y="59" width="28" height="13" rx="1" fill="#9A5E3C"/>
    <rect x="91" y="59" width="9"  height="13" rx="1" fill="#9A5E3C"/>
    <!-- Row 3 -->
    <rect x="15" y="74" width="28" height="13" rx="1" fill="#8B5433"/>
    <rect x="45" y="74" width="28" height="13" rx="1" fill="#8B5433"/>
    <rect x="75" y="74" width="25" height="13" rx="1" fill="#8B5433"/>
    <!-- Row 4 offset -->
    <rect x="15" y="89" width="14" height="13" rx="1" fill="#9A5E3C"/>
    <rect x="31" y="89" width="28" height="13" rx="1" fill="#9A5E3C"/>
    <rect x="61" y="89" width="28" height="13" rx="1" fill="#9A5E3C"/>
    <rect x="91" y="89" width="9"  height="13" rx="1" fill="#9A5E3C"/>
    <!-- Row 5 -->
    <rect x="15" y="104" width="28" height="13" rx="1" fill="#8B5433"/>
    <rect x="45" y="104" width="28" height="13" rx="1" fill="#8B5433"/>
    <rect x="75" y="104" width="25" height="13" rx="1" fill="#8B5433"/>
    <!-- Row 6 offset -->
    <rect x="15" y="119" width="14" height="13" rx="1" fill="#9A5E3C"/>
    <rect x="31" y="119" width="28" height="13" rx="1" fill="#9A5E3C"/>
    <rect x="61" y="119" width="28" height="13" rx="1" fill="#9A5E3C"/>
    <!-- Row 7 -->
    <rect x="22" y="134" width="25" height="13" rx="1" fill="#8B5433"/>
    <rect x="49" y="134" width="28" height="13" rx="1" fill="#8B5433"/>
    <rect x="79" y="134" width="21" height="13" rx="1" fill="#8B5433"/>
    <!-- Row 8 offset -->
    <rect x="28" y="149" width="22" height="13" rx="1" fill="#9A5E3C"/>
    <rect x="52" y="149" width="28" height="13" rx="1" fill="#9A5E3C"/>
    <rect x="82" y="149" width="18" height="13" rx="1" fill="#9A5E3C"/>
    <!-- Row 9 -->
    <rect x="38" y="164" width="20" height="13" rx="1" fill="#8B5433"/>
    <rect x="60" y="164" width="20" height="13" rx="1" fill="#8B5433"/>
    <rect x="82" y="164" width="18" height="13" rx="1" fill="#8B5433"/>
    <!-- Row 10 -->
    <rect x="50" y="179" width="18" height="13" rx="1" fill="#9A5E3C"/>
    <rect x="70" y="179" width="18" height="13" rx="1" fill="#9A5E3C"/>
    <!-- Row 11 -->
    <rect x="62" y="194" width="15" height="13" rx="1" fill="#8B5433"/>
    <rect x="79" y="194" width="15" height="13" rx="1" fill="#8B5433"/>
  </g>

  <!-- Right half – dark charcoal bricks -->
  <g clip-path="url(#cr)">
    <rect x="100" width="100" height="215" fill="#1E1E1E"/>
    <!-- Row 1 -->
    <rect x="100" y="44" width="28" height="13" rx="1" fill="#2A2A2A"/>
    <rect x="130" y="44" width="28" height="13" rx="1" fill="#2A2A2A"/>
    <rect x="160" y="44" width="25" height="13" rx="1" fill="#2A2A2A"/>
    <!-- Row 2 offset -->
    <rect x="100" y="59" width="14" height="13" rx="1" fill="#353535"/>
    <rect x="116" y="59" width="28" height="13" rx="1" fill="#353535"/>
    <rect x="146" y="59" width="28" height="13" rx="1" fill="#353535"/>
    <rect x="176" y="59" width="9"  height="13" rx="1" fill="#353535"/>
    <!-- Row 3 -->
    <rect x="100" y="74" width="28" height="13" rx="1" fill="#2A2A2A"/>
    <rect x="130" y="74" width="28" height="13" rx="1" fill="#2A2A2A"/>
    <rect x="160" y="74" width="25" height="13" rx="1" fill="#2A2A2A"/>
    <!-- Row 4 offset -->
    <rect x="100" y="89" width="14" height="13" rx="1" fill="#353535"/>
    <rect x="116" y="89" width="28" height="13" rx="1" fill="#353535"/>
    <rect x="146" y="89" width="28" height="13" rx="1" fill="#353535"/>
    <rect x="176" y="89" width="9"  height="13" rx="1" fill="#353535"/>
    <!-- Row 5 -->
    <rect x="100" y="104" width="28" height="13" rx="1" fill="#2A2A2A"/>
    <rect x="130" y="104" width="28" height="13" rx="1" fill="#2A2A2A"/>
    <rect x="160" y="104" width="25" height="13" rx="1" fill="#2A2A2A"/>
    <!-- Row 6 offset -->
    <rect x="100" y="119" width="14" height="13" rx="1" fill="#353535"/>
    <rect x="116" y="119" width="28" height="13" rx="1" fill="#353535"/>
    <rect x="146" y="119" width="28" height="13" rx="1" fill="#353535"/>
    <!-- Row 7 -->
    <rect x="100" y="134" width="25" height="13" rx="1" fill="#2A2A2A"/>
    <rect x="127" y="134" width="28" height="13" rx="1" fill="#2A2A2A"/>
    <rect x="157" y="134" width="22" height="13" rx="1" fill="#2A2A2A"/>
    <!-- Row 8 offset -->
    <rect x="100" y="149" width="22" height="13" rx="1" fill="#353535"/>
    <rect x="124" y="149" width="28" height="13" rx="1" fill="#353535"/>
    <rect x="154" y="149" width="25" height="13" rx="1" fill="#353535"/>
    <!-- Row 9 -->
    <rect x="100" y="164" width="20" height="13" rx="1" fill="#2A2A2A"/>
    <rect x="122" y="164" width="20" height="13" rx="1" fill="#2A2A2A"/>
    <rect x="144" y="164" width="18" height="13" rx="1" fill="#2A2A2A"/>
    <!-- Row 10 -->
    <rect x="112" y="179" width="18" height="13" rx="1" fill="#353535"/>
    <rect x="132" y="179" width="18" height="13" rx="1" fill="#353535"/>
    <!-- Row 11 -->
    <rect x="124" y="194" width="15" height="13" rx="1" fill="#2A2A2A"/>
    <rect x="141" y="194" width="15" height="13" rx="1" fill="#2A2A2A"/>
  </g>

  <!-- City skyline – cream white, top center -->
  <g clip-path="url(#full)" fill="#F5EDD8">
    <rect x="22" y="54" width="156" height="4"/>
    <!-- Buildings: tallest at center, decreasing outward -->
    <rect x="88"  y="10" width="24" height="48"/>
    <rect x="77"  y="20" width="9"  height="38"/>
    <rect x="114" y="20" width="9"  height="38"/>
    <rect x="63"  y="27" width="12" height="31"/>
    <rect x="125" y="26" width="12" height="32"/>
    <rect x="48"  y="33" width="13" height="25"/>
    <rect x="139" y="32" width="13" height="26"/>
    <rect x="35"  y="39" width="11" height="19"/>
    <rect x="154" y="38" width="11" height="20"/>
  </g>

  <!-- Green leaf sprout – bottom center -->
  <g clip-path="url(#full)">
    <!-- Stem -->
    <rect x="98.5" y="152" width="3" height="28" fill="#1B5E20"/>
    <!-- Left leaf -->
    <path d="M100,156 C84,142 66,151 75,165 C80,173 94,168 100,156 Z" fill="#4CAF50"/>
    <!-- Right leaf -->
    <path d="M100,156 C116,142 134,151 125,165 C120,173 106,168 100,156 Z" fill="#388E3C"/>
    <!-- Leaf veins -->
    <path d="M100,156 C89,151 81,158 78,165" stroke="#1B5E20" stroke-width="1.2" fill="none" opacity="0.7"/>
    <path d="M100,156 C111,151 119,158 122,165" stroke="#1B5E20" stroke-width="1.2" fill="none" opacity="0.7"/>
  </g>

  <!-- Shield outline -->
  <polygon points="100,8 185,42 185,130 155,172 100,208 45,172 15,130 15,42"
    fill="none" stroke="#111" stroke-width="2.5" opacity="0.2"/>
  <!-- Center divider -->
  <line x1="100" y1="8" x2="100" y2="208" stroke="#111" stroke-width="1.5" opacity="0.15"/>
</svg>
